<svg xmlns="http://www.w3.org/2000/svg" xmlns:xlink="http://www.w3.org/1999/xlink" version="1.1" id="Layer_1" x="0px" y="0px" width="100.0px" height="100px" viewBox="0 0 175 175" enable-background="new 0 0 175 175" xml:space="preserve">
<g>
	<path d="M52.729,144.581h0.241c2.036,3.32,17.161,5.902,35.528,5.902c18.369,0,33.492-2.582,35.526-5.902h0.167l9.453-90.432   H42.501L52.729,144.581z M108.066,138.291l5.857-72.577c0.126-1.566,1.123-2.761,2.229-2.671l4.531,0.366   c1.107,0.088,1.899,1.429,1.774,2.994l-5.857,72.577c-0.126,1.563-1.124,2.762-2.231,2.67l-4.528-0.364   C108.731,141.197,107.94,139.854,108.066,138.291z M84.501,64.577c0-1.643,0.991-2.976,2.214-2.976h5.003   c1.225,0,2.214,1.333,2.214,2.976v76.265c0,1.645-0.989,2.978-2.214,2.978h-5.003c-1.224,0-2.214-1.333-2.214-2.978V64.577z    M56.111,62.953l4.654-0.392c1.138-0.098,2.164,1.094,2.296,2.659l6.113,72.555c0.131,1.563-0.68,2.909-1.818,3.007l-4.654,0.39   c-1.137,0.098-2.165-1.095-2.295-2.657l-6.113-72.557C54.162,64.395,54.974,63.049,56.111,62.953z"/>
	<path d="M127.276,36.313h-18.592l-8.887-14.394l-0.515,0.317v-0.317H77.611v0.419l-8.627,13.974H48.872L38.5,47.256h100   L127.276,36.313z M77.875,36.313l4.912-7.955h12.094l4.909,7.955H77.875z"/>
</g>
</svg>